<?xml version="1.0" encoding="utf-8"?>
<!-- Generator: Adobe Illustrator 22.0.0, SVG Export Plug-In . SVG Version: 6.00 Build 0)  -->
<svg version="1.1" id="Ebene_1" xmlns="http://www.w3.org/2000/svg" xmlns:xlink="http://www.w3.org/1999/xlink" x="0px" y="0px"
	 viewBox="0 0 290.6 87.4" width="291" height="87" style="enable-background:new 0 0 290.6 87.4;" xml:space="preserve">
<style type="text/css">
	.st0{fill:#E30613;}
	.st1{fill:#FFFFFF;}
</style>
<polygon class="st0" points="23.7,49.8 3.5,49.8 3.5,77.6 13.6,77.6 "/>
<path class="st0" d="M173.7,19.7L173.7,19.7c0-0.2,0-0.4,0-0.5c0,0,0,0,0,0c-0.3-6.2-5.2-11.3-11.3-11.6c0,0,0,0,0,0
	c-3.4-0.1-6.6,1-9,3c0.4,0,0.7-0.1,1.1-0.1c5.1,0,9.2,4.1,9.2,9.2c0,5.1-4.1,9.2-9.2,9.2c-5.1,0-9.2-4.1-9.2-9.2c0,0,0,0,0,0
	c0-0.1,0-0.3,0-0.4c0.3-8.4,7.9-14.9,17.2-14.7c1.7,0.1,3.4,0.3,5,0.8c-3.4-3.1-8-5-13-5c-10.6,0-19.3,8.6-19.3,19.3l0,0
	c0,0,0,0,0,0c0,0.1,0,0.1,0,0.2l0,0c0.1,10.6,8.7,19.1,19.3,19.1c10.6,0,19.2-8.5,19.3-19.1h0c0,0,0,0,0-0.1
	C173.7,19.7,173.7,19.7,173.7,19.7C173.7,19.7,173.7,19.7,173.7,19.7z"/>
<path d="M23.7,14.7c-0.5-3.4-3.1-5.2-6.8-5.2c-5.7,0-7.8,5-7.8,10c0,5,2.2,10,7.8,10c4.1,0,6.5-2.4,6.8-6.2h8.8
	C32,32,25.7,37.1,17.1,37.1c-10.2,0-16.8-7.8-16.8-17.6C0.3,9.8,6.9,2,17.1,2c7.3,0,15.2,4.6,15.4,12.8H23.7z"/>
<path d="M44.7,2.7h8.9l12.6,33.7h-9.2l-2.1-6H43.2l-2.1,6h-9L44.7,2.7z M45.3,23.9h7.7L49.2,12h-0.1L45.3,23.9z"/>
<path d="M68.8,2.7H86c6,0,11.8,2.7,11.8,9.5c0,3.6-1.7,7.1-5.3,8.5v0.1c3.6,0.9,4.6,4.9,4.9,8.1c0.1,1.4,0.2,6.4,1.4,7.6h-8.7
	c-0.8-1.1-0.9-4.4-1-5.4c-0.2-3.4-0.8-6.9-4.9-6.9h-6.7v12.3h-8.8V2.7z M77.6,17.3h7.4c2.6,0,4.1-1.4,4.1-4c0-2.5-2-3.6-4.4-3.6h-7
	V17.3z"/>
<path d="M102.9,2.7h15.8c5.8-0.1,12.2,1.4,12.2,8.5c0,3-1.8,5.5-4.4,6.8c3.6,1,5.8,4.2,5.8,8c0,8-5.9,10.5-13.1,10.5h-16.2V2.7z
	 M111.7,16h6.8c1.5,0,3.6-0.8,3.6-3.2c0-2.5-1.7-3.3-3.6-3.3h-6.8V16z M111.7,29.4h7c2.8,0,4.7-1,4.7-3.8c0-3-2.1-4-4.7-4h-7V29.4z"
	/>
<path d="M177.8,2.7h8.8v26.2h15.7v7.6h-24.5V2.7z"/>
<path d="M206.7,2.7h8.8v33.7h-8.8V2.7z"/>
<path d="M248.3,10.2h-10.1v26.2h-8.8V10.2h-10.1V2.7h28.9V10.2z"/>
<path d="M252.2,2.7h26.9v7H261v5.9h16.5v6.8H261v6.4h18.6v7.6h-27.3V2.7z"/>
<path d="M286.5,7.9c-1.8,0-3.1-1.5-3.1-3.4c0-1.8,1.4-3.3,3.1-3.3c1.8,0,3.1,1.5,3.1,3.3C289.6,6.4,288.3,7.9,286.5,7.9L286.5,7.9z
	 M286.5,8.4c2,0,3.7-1.7,3.7-3.9c0-2.1-1.6-3.9-3.7-3.9c-2,0-3.7,1.8-3.7,3.9C282.8,6.7,284.5,8.4,286.5,8.4L286.5,8.4z M287,4.7
	c0.8,0,1.4-0.4,1.4-1.2c0-0.4-0.2-0.8-0.5-0.9c-0.3-0.2-0.7-0.2-1-0.2H285v4.4h0.6v-2h0.9l1.2,2h0.7L287,4.7L287,4.7z M285.5,4.3
	V2.8h1.2c0.5,0,1.1,0.1,1.1,0.7c0,0.7-0.4,0.8-1.5,0.8H285.5L285.5,4.3z"/>
<g>
	<g>
		<path d="M49.6,68.8c-0.3,0.9-1.6,1.3-4,1.3h-9.2c-0.7,0-1.3-0.3-1.6-0.6c-0.1-0.1-0.2-0.2-0.2-0.4l5.8-16c0.2-0.7,1.2-1.1,2.3-1.2
			l25.2,0l2.8-7.7l-25.9,0c-5.7,0-7.1,0.2-10,1.3c-4,1.6-5.1,2.9-6.7,7L22.6,68c-0.7,1.8-1,3.1-1.2,3.8c-0.2,1.3,0.3,2.6,1.5,3.6
			c2.1,1.8,4.3,2.3,10,2.3h13.4c5,0,7.4-0.6,10.6-2.5c2.7-1.6,3.4-2.6,4.7-6l4-10.9H53.5L49.6,68.8z"/>
		<path d="M78.6,66.9h19.9l2.4-6.5H80.9l1-2.6c0.2-0.6,0.7-1,1.4-1.3c0.5-0.1,0.9-0.3,1.3-0.3h17.8l2.4-6.5H84.1
			c-6.1,0-10.5,2.3-11.9,6.2l-5.7,15.8c-0.5,1.4-0.4,2.6,0.2,3.6c1.2,1.7,4.1,2.5,8.8,2.5h19l2.4-6.5H79.1c-0.8,0-1.4-0.2-1.6-0.5
			c-0.2-0.2-0.2-0.6,0-1L78.6,66.9z"/>
		<path d="M127.3,66.9c5.5,0,10.2-2.4,11.5-5.8l2-5.5c0.5-1.4,0.4-2.6-0.3-3.6c-1.1-1.5-3.6-2.4-7.4-2.4h-23.1l-10.1,28h10.3l4-11
			c0,0.2,0.1,0.5,0.3,0.7L127,87.1l0.1,0.1h12.8l-13.5-20.3L127.3,66.9z M127.6,56.2c1.5,0,2,0.3,2.1,0.6c0.1,0.2,0.1,0.4,0,0.7
			l-0.9,2.5c-0.3,1-1.2,1.4-2.9,1.4h-3.8c-2.9,0-5.3,0.9-6.7,2.4l2.7-7.5H127.6z"/>
		<path d="M178.5,52.1c-1.1-1.6-3.9-2.4-8.5-2.4H158c-3.4,0-5.8,0.3-7.7,1.1c-2.7,1.1-4.9,3-5.6,5l-5.7,15.6
			c-0.8,2.2-0.2,4.2,1.5,5.2c1.4,0.8,3.6,1.1,7.1,1.1h11.9c7.3,0,11.7-2,13.2-6.1l5.9-15.6C179.2,54.4,179.2,53.1,178.5,52.1z
			 M167.2,57.7l-4.6,12c-0.4,1.1-1,1.5-3.7,1.5h-6.2c-1,0-2.2-0.1-2.4-0.5c-0.1-0.2-0.1-0.5,0.1-1l4.4-11.8c0.5-1.3,1.3-1.7,3.8-1.7
			h6.2c1,0,2.2,0.1,2.5,0.5C167.4,56.9,167.4,57.2,167.2,57.7z"/>
	</g>
</g>
<g>
	<g>
		<path class="st0" d="M186.6,49.8l-10.1,27.8h102.8V49.8H186.6z"/>
	</g>
	<g>
		<path class="st1" d="M198.1,70.5c-3.5,0-3.8-2.6-3.7-4v-0.8h2.4c0.1,1.1-0.2,2.8,1.4,2.8c1.4,0,1.3-1.3,1.3-2.6
			c0-0.4,0-1.1-0.3-1.4c-0.5-0.6-1.6-0.5-2.3-0.5v-2c0.5,0,1.1,0,1.6-0.2c0.7-0.3,0.8-1,0.8-1.7c0-1-0.4-1.5-1.2-1.5
			c-0.5,0-1.2,0.2-1.2,1.1v1h-2.4c-0.1-2.5,1-4,3.5-4c2.5,0,3.7,1.3,3.7,3.5c0,1.2-0.4,2.6-1.8,2.8v0c1.2,0.1,2.1,1.2,2,3.3
			C202,68.9,200.9,70.5,198.1,70.5z"/>
		<path class="st1" d="M224.9,70.5c-3.5,0-3.8-2.6-3.7-4v-0.8h2.4c0.1,1.1-0.2,2.8,1.4,2.8c1.4,0,1.3-1.3,1.3-2.6
			c0-0.4,0-1.1-0.3-1.4c-0.5-0.6-1.6-0.5-2.3-0.5v-2c0.5,0,1.1,0,1.6-0.2c0.7-0.3,0.8-1,0.8-1.7c0-1-0.4-1.5-1.2-1.5
			c-0.5,0-1.2,0.2-1.2,1.1v1h-2.4c-0.1-2.5,1-4,3.5-4c2.5,0,3.7,1.3,3.7,3.5c0,1.2-0.4,2.6-1.8,2.8v0c1.2,0.1,2.1,1.2,2,3.3
			C228.8,68.9,227.7,70.5,224.9,70.5z"/>
		<path class="st1" d="M207.4,56.7c-2.3,0-3.7,1-3.7,3.9v6.1c0,2.9,1.4,3.9,3.6,3.9c2.3,0,3.7-1,3.7-3.9v-6.1
			C211.1,57.7,209.7,56.7,207.4,56.7z M208.5,66.7c0.1,1.5-0.5,1.9-1.2,1.9c-0.6,0-1.2-0.4-1.1-1.9v-6.1c-0.1-1.5,0.5-1.9,1.1-1.9
			c0.7,0,1.2,0.4,1.2,1.9V66.7z"/>
		<path class="st1" d="M234.2,56.7c-2.3,0-3.7,1-3.7,3.9v6.1c0,2.9,1.4,3.9,3.6,3.9c2.3,0,3.7-1,3.7-3.9v-6.1
			C237.9,57.7,236.5,56.7,234.2,56.7z M235.3,66.7c0.1,1.5-0.5,1.9-1.2,1.9c-0.6,0-1.2-0.4-1.1-1.9v-6.1c-0.1-1.5,0.5-1.9,1.1-1.9
			c0.7,0,1.2,0.4,1.2,1.9V66.7z"/>
		<path class="st1" d="M243.2,56.7c-2.3,0-3.7,1-3.7,3.9v6.1c0,2.9,1.4,3.9,3.6,3.9c2.3,0,3.7-1,3.7-3.9v-6.1
			C246.9,57.7,245.5,56.7,243.2,56.7z M244.3,66.7c0.1,1.5-0.5,1.9-1.2,1.9c-0.6,0-1.2-0.4-1.1-1.9v-6.1c-0.1-1.5,0.5-1.9,1.1-1.9
			c0.7,0,1.2,0.4,1.2,1.9V66.7z"/>
		<path class="st1" d="M252.2,56.7c-2.3,0-3.7,1-3.7,3.9v6.1c0,2.9,1.4,3.9,3.6,3.9c2.3,0,3.7-1,3.7-3.9v-6.1
			C255.8,57.7,254.5,56.7,252.2,56.7z M253.3,66.7c0.1,1.5-0.5,1.9-1.2,1.9c-0.6,0-1.2-0.4-1.1-1.9v-6.1c-0.1-1.5,0.5-1.9,1.1-1.9
			c0.7,0,1.2,0.4,1.2,1.9V66.7z"/>
		<rect x="214.1" y="63.6" class="st1" width="4.3" height="2.1"/>
		<path class="st1" d="M272.7,66.2c-0.1,2.5-1,4.3-3.8,4.3c-4.1,0-4.4-2.6-4.4-6.2v-1.9c0.1-3.4,0.4-6,4.4-6c2.3,0,3.5,1.2,3.7,3.5
			c0,0.3,0.1,0.7,0.1,1h-2.5c-0.1-0.9,0-2.5-1.3-2.5c-2,0-1.8,2.4-1.8,3.4v3.7c0,1.1,0.1,2.9,1.8,2.9c1.4,0,1.2-2.2,1.3-3.1h2.5
			C272.8,65.7,272.7,66,272.7,66.2z"/>
		<path class="st1" d="M260.8,57.3c-1.4,0-2.5,1.1-2.5,2.5c0,1.4,1.1,2.5,2.5,2.5c1.4,0,2.5-1.1,2.5-2.5
			C263.4,58.4,262.2,57.3,260.8,57.3z M260.8,61.5c-0.9,0-1.6-0.8-1.6-1.6c0-0.9,0.7-1.6,1.6-1.6c0.9,0,1.6,0.7,1.6,1.6
			C262.5,60.7,261.7,61.5,260.8,61.5z"/>
	</g>
</g>
</svg>
